<svg version="1.1" id="Layer_1" xmlns="http://www.w3.org/2000/svg" xmlns:xlink="http://www.w3.org/1999/xlink" x="0px" y="0px"
	 width="100%" viewBox="0 0 256 256" enable-background="new 0 0 256 256" xml:space="preserve">
<path fill="#182537" opacity="1.000000" stroke="none" 
	d="
M140.000000,257.000000 
	C93.333336,257.000000 47.166672,257.000000 1.000006,257.000000 
	C1.000004,171.666672 1.000004,86.333351 1.000002,1.000018 
	C86.333321,1.000012 171.666641,1.000012 257.000000,1.000006 
	C257.000000,86.333313 257.000000,171.666626 257.000000,256.999969 
	C218.166672,257.000000 179.333328,257.000000 140.000000,257.000000 
M179.390091,42.275963 
	C167.903412,53.416126 165.736221,67.758751 173.657074,80.217392 
	C181.949066,93.259811 197.520538,98.403008 211.491837,93.357986 
	C222.685852,89.315849 234.021622,75.600960 232.086365,62.716591 
	C228.445053,67.476768 225.097977,71.306648 222.365250,75.533707 
	C215.864151,85.589714 204.439484,90.460648 194.048798,87.238213 
	C175.688553,81.544228 171.000671,62.718315 184.719788,46.935200 
	C193.463074,39.719666 202.948212,38.947838 213.106812,44.012730 
	C214.735870,42.199749 216.205978,40.563660 217.745392,38.850437 
	C205.311661,30.907990 191.765259,32.181515 179.390091,42.275963 
M122.557114,200.364243 
	C123.038437,194.565140 123.519753,188.766052 124.852676,182.734497 
	C126.901443,182.812180 128.950211,182.889862 131.199249,183.245926 
	C131.466568,183.161209 131.733887,183.076508 132.828781,183.303864 
	C132.911087,188.630569 132.924133,193.959518 133.096237,199.283325 
	C133.251663,204.091293 136.829468,207.874023 141.046219,207.901184 
	C145.348236,207.928894 148.711807,204.333633 148.893707,199.256821 
	C149.036819,195.261978 149.026871,191.255844 148.913406,187.259583 
	C148.829483,184.303329 149.590073,182.685577 153.020264,182.519257 
	C155.772247,182.385803 158.675629,181.669144 161.165894,180.484238 
	C172.052277,175.304428 178.777435,166.664734 179.682739,154.598831 
	C180.543198,143.130722 175.542709,134.159454 165.081467,128.308151 
	C175.277237,120.177818 177.564865,109.687675 174.120178,98.088509 
	C170.501694,85.904114 161.943832,78.671654 149.299973,76.659996 
	C149.171066,76.239098 148.994293,75.928040 148.992340,75.615898 
	C148.959091,70.283455 148.944199,64.950882 148.931885,59.618328 
	C148.914597,52.133095 146.077408,48.083435 140.869659,48.121284 
	C135.672852,48.159054 133.067856,52.011147 133.036560,59.769825 
	C133.013947,65.375481 133.032150,70.981308 133.032150,76.603302 
	C129.001221,76.603302 125.602318,76.603302 121.911179,76.603302 
	C121.911179,70.656662 121.921158,65.011566 121.908630,59.366520 
	C121.893318,52.464493 118.770203,48.110165 113.923416,48.200535 
	C109.109879,48.290283 106.193687,52.576023 106.183647,59.597649 
	C106.175613,65.219894 106.182030,70.842163 106.182030,76.921928 
	C104.137222,76.921928 102.514633,76.922592 100.892036,76.921814 
	C93.892540,76.918465 86.889275,76.771011 79.894684,76.954521 
	C73.814125,77.114044 70.243019,82.916367 73.375397,87.699211 
	C75.309074,90.651756 77.913063,93.218369 82.118118,92.976845 
	C85.529701,92.780899 88.961517,92.937065 92.370087,92.937065 
	C92.370087,118.061249 92.370087,142.503799 92.370087,167.544998 
	C88.678925,167.544998 85.222191,167.470825 81.769798,167.561676 
	C76.004974,167.713409 72.393944,170.605560 72.295441,175.013916 
	C72.192917,179.601791 75.932503,182.567719 82.023407,182.665726 
	C89.345421,182.783554 96.668129,182.859177 104.344536,183.392120 
	C104.679878,183.556854 105.015228,183.721588 106.063362,184.391312 
	C106.104721,188.707413 106.141373,193.023575 106.188568,197.339615 
	C106.252586,203.192261 108.580055,207.078903 112.814934,207.638443 
	C117.786606,208.295319 120.347252,205.150848 122.557114,200.364243 
M33.979507,136.265701 
	C33.296398,122.713768 34.364395,109.444283 38.572735,96.372566 
	C55.829185,42.771564 119.307587,14.361071 170.373749,41.598682 
	C174.134003,38.348751 177.842590,35.143486 181.615540,31.882587 
	C142.411819,6.822473 80.597382,12.304594 43.641644,57.977772 
	C7.563494,102.566353 11.995976,168.900726 53.862564,208.317749 
	C94.177094,246.273544 160.772873,247.021515 201.367264,210.048370 
	C221.780777,191.455887 233.728668,168.416260 236.783997,141.102463 
	C238.783417,123.228317 237.560410,105.503883 229.934341,88.471733 
	C226.841156,91.065720 224.429306,93.390488 221.711212,95.273087 
	C219.497574,96.806305 218.752319,98.082779 219.685059,100.945885 
	C223.900299,113.884979 224.420288,127.357941 222.678207,140.611435 
	C215.722061,193.533371 170.268372,229.016922 116.719398,222.613693 
	C71.557388,217.213348 38.434010,182.175049 33.979507,136.265701 
M223.659515,43.155178 
	C215.649597,50.667660 207.639679,58.180141 198.902084,66.375122 
	C197.612549,64.860069 195.577713,62.452679 193.524384,60.061157 
	C190.911240,57.017582 187.881287,55.612167 184.542755,58.754654 
	C181.450592,61.665245 181.068924,65.239670 183.855896,68.567802 
	C186.737595,72.009048 189.889694,75.234924 193.052582,78.427124 
	C198.192123,83.614288 201.858017,83.819778 207.196152,78.625801 
	C217.584656,68.517822 227.739899,58.170029 237.981308,47.911110 
	C238.566681,47.324711 239.132629,46.692730 239.580734,45.999893 
	C241.736938,42.666092 241.085175,39.627342 238.309128,37.050587 
	C235.566727,34.505074 232.559402,34.569302 229.788284,36.981476 
	C227.784653,38.725552 226.026749,40.751919 223.659515,43.155178 
z"/>
<path fill="#F7F9FB" opacity="1.000000" stroke="none" 
	d="
M34.004093,136.735474 
	C38.434010,182.175049 71.557388,217.213348 116.719398,222.613693 
	C170.268372,229.016922 215.722061,193.533371 222.678207,140.611435 
	C224.420288,127.357941 223.900299,113.884979 219.685059,100.945885 
	C218.752319,98.082779 219.497574,96.806305 221.711212,95.273087 
	C224.429306,93.390488 226.841156,91.065720 229.934341,88.471733 
	C237.560410,105.503883 238.783417,123.228317 236.783997,141.102463 
	C233.728668,168.416260 221.780777,191.455887 201.367264,210.048370 
	C160.772873,247.021515 94.177094,246.273544 53.862564,208.317749 
	C11.995976,168.900726 7.563494,102.566353 43.641644,57.977772 
	C80.597382,12.304594 142.411819,6.822473 181.615540,31.882587 
	C177.842590,35.143486 174.134003,38.348751 170.373749,41.598682 
	C119.307587,14.361071 55.829185,42.771564 38.572735,96.372566 
	C34.364395,109.444283 33.296398,122.713768 34.004093,136.735474 
z"/>
<path fill="#F9FAFB" opacity="1.000000" stroke="none" 
	d="
M130.998978,182.967545 
	C128.950211,182.889862 126.901443,182.812180 123.980164,182.771301 
	C122.712975,183.745667 121.992905,184.678009 121.977791,185.621658 
	C121.895699,190.744629 121.987663,195.870392 122.019684,200.995193 
	C120.347252,205.150848 117.786606,208.295319 112.814934,207.638443 
	C108.580055,207.078903 106.252586,203.192261 106.188568,197.339615 
	C106.141373,193.023575 106.104721,188.707413 105.600632,183.831085 
	C104.755447,183.164932 104.372993,183.059006 103.990532,182.953079 
	C96.668129,182.859177 89.345421,182.783554 82.023407,182.665726 
	C75.932503,182.567719 72.192917,179.601791 72.295441,175.013916 
	C72.393944,170.605560 76.004974,167.713409 81.769798,167.561676 
	C85.222191,167.470825 88.678925,167.544998 92.370087,167.544998 
	C92.370087,142.503799 92.370087,118.061249 92.370087,92.937065 
	C88.961517,92.937065 85.529701,92.780899 82.118118,92.976845 
	C77.913063,93.218369 75.309074,90.651756 73.375397,87.699211 
	C70.243019,82.916367 73.814125,77.114044 79.894684,76.954521 
	C86.889275,76.771011 93.892540,76.918465 100.892036,76.921814 
	C102.514633,76.922592 104.137222,76.921928 106.182030,76.921928 
	C106.182030,70.842163 106.175613,65.219894 106.183647,59.597649 
	C106.193687,52.576023 109.109879,48.290283 113.923416,48.200535 
	C118.770203,48.110165 121.893318,52.464493 121.908630,59.366520 
	C121.921158,65.011566 121.911179,70.656662 121.911179,76.603302 
	C125.602318,76.603302 129.001221,76.603302 133.032150,76.603302 
	C133.032150,70.981308 133.013947,65.375481 133.036560,59.769825 
	C133.067856,52.011147 135.672852,48.159054 140.869659,48.121284 
	C146.077408,48.083435 148.914597,52.133095 148.931885,59.618328 
	C148.944199,64.950882 148.959091,70.283455 148.992340,75.615898 
	C148.994293,75.928040 149.171066,76.239098 149.299973,76.659996 
	C161.943832,78.671654 170.501694,85.904114 174.120178,98.088509 
	C177.564865,109.687675 175.277237,120.177818 165.081467,128.308151 
	C175.542709,134.159454 180.543198,143.130722 179.682739,154.598831 
	C178.777435,166.664734 172.052277,175.304428 161.165894,180.484238 
	C158.675629,181.669144 155.772247,182.385803 153.020264,182.519257 
	C149.590073,182.685577 148.829483,184.303329 148.913406,187.259583 
	C149.026871,191.255844 149.036819,195.261978 148.893707,199.256821 
	C148.711807,204.333633 145.348236,207.928894 141.046219,207.901184 
	C136.829468,207.874023 133.251663,204.091293 133.096237,199.283325 
	C132.924133,193.959518 132.911087,188.630569 132.166595,183.052841 
	C131.335907,182.857071 131.167435,182.912308 130.998978,182.967545 
M146.687103,121.911255 
	C154.690491,119.128502 159.135132,113.065094 158.474243,105.831223 
	C157.792389,98.368248 153.308411,93.456985 145.063660,91.966385 
	C133.383682,92.022278 121.703705,92.078178 109.194252,92.397614 
	C109.148994,101.422432 109.079582,110.447311 109.100876,119.471977 
	C109.102730,120.257797 109.701767,121.042198 110.941895,122.012772 
	C122.615967,121.949211 134.290039,121.885643 146.687103,121.911255 
M152.705322,166.987167 
	C160.279587,164.045319 164.590683,157.921997 163.828690,151.187881 
	C163.023087,144.068176 157.813522,137.749619 150.789185,137.475067 
	C137.035645,136.937485 123.246231,137.317139 109.040634,137.317139 
	C109.040634,145.472336 108.977234,153.264832 109.084206,161.054977 
	C109.111710,163.058365 109.675781,165.054398 110.494690,167.302658 
	C110.670998,167.241669 110.847313,167.180664 111.925804,167.383499 
	C124.950554,167.259247 137.975311,167.134995 151.506409,167.117233 
	C151.664673,167.048691 151.822937,166.980148 152.705322,166.987167 
z"/>
<path fill="#F8F9FA" opacity="1.000000" stroke="none" 
	d="
M223.909393,42.903786 
	C226.026749,40.751919 227.784653,38.725552 229.788284,36.981476 
	C232.559402,34.569302 235.566727,34.505074 238.309128,37.050587 
	C241.085175,39.627342 241.736938,42.666092 239.580734,45.999893 
	C239.132629,46.692730 238.566681,47.324711 237.981308,47.911110 
	C227.739899,58.170029 217.584656,68.517822 207.196152,78.625801 
	C201.858017,83.819778 198.192123,83.614288 193.052582,78.427124 
	C189.889694,75.234924 186.737595,72.009048 183.855896,68.567802 
	C181.068924,65.239670 181.450592,61.665245 184.542755,58.754654 
	C187.881287,55.612167 190.911240,57.017582 193.524384,60.061157 
	C195.577713,62.452679 197.612549,64.860069 198.902084,66.375122 
	C207.639679,58.180141 215.649597,50.667660 223.909393,42.903786 
z"/>
<path fill="#3ACFB7" opacity="1.000000" stroke="none" 
	d="
M184.086914,47.232628 
	C171.000671,62.718315 175.688553,81.544228 194.048798,87.238213 
	C204.439484,90.460648 215.864151,85.589714 222.365250,75.533707 
	C225.097977,71.306648 228.445053,67.476768 232.086365,62.716591 
	C234.021622,75.600960 222.685852,89.315849 211.491837,93.357986 
	C197.520538,98.403008 181.949066,93.259811 173.657074,80.217392 
	C165.736221,67.758751 167.903412,53.416126 179.908356,42.363029 
	C181.646729,44.044273 182.866821,45.638451 184.086914,47.232628 
z"/>
<path fill="#3DD0B9" opacity="1.000000" stroke="none" 
	d="
M184.403351,47.083916 
	C182.866821,45.638451 181.646729,44.044273 180.197769,42.192184 
	C191.765259,32.181515 205.311661,30.907990 217.745392,38.850437 
	C216.205978,40.563660 214.735870,42.199749 213.106812,44.012730 
	C202.948212,38.947838 193.463074,39.719666 184.403351,47.083916 
z"/>
<path fill="#141826" opacity="1.000000" stroke="none" 
	d="
M122.288399,200.679718 
	C121.987663,195.870392 121.895699,190.744629 121.977791,185.621658 
	C121.992905,184.678009 122.712975,183.745667 123.554359,182.887527 
	C123.519753,188.766052 123.038437,194.565140 122.288399,200.679718 
z"/>
<path fill="#0D1431" opacity="1.000000" stroke="none" 
	d="
M104.167534,183.172607 
	C104.372993,183.059006 104.755447,183.164932 105.244247,183.578583 
	C105.015228,183.721588 104.679878,183.556854 104.167534,183.172607 
z"/>
<path fill="#141826" opacity="1.000000" stroke="none" 
	d="
M131.099121,183.106735 
	C131.167435,182.912308 131.335907,182.857071 131.752808,182.896820 
	C131.733887,183.076508 131.466568,183.161209 131.099121,183.106735 
z"/>
<path fill="#1A2638" opacity="1.000000" stroke="none" 
	d="
M109.993355,167.053802 
	C109.675781,165.054398 109.111710,163.058365 109.084206,161.054977 
	C108.977234,153.264832 109.040634,145.472336 109.040634,137.317139 
	C123.246231,137.317139 137.035645,136.937485 150.789185,137.475067 
	C157.813522,137.749619 163.023087,144.068176 163.828690,151.187881 
	C164.590683,157.921997 160.279587,164.045319 152.235077,166.821487 
	C151.509918,166.774124 151.254990,166.892441 151.000061,167.010757 
	C137.975311,167.134995 124.950554,167.259247 111.376930,167.100739 
	C110.549820,166.896591 110.271591,166.975189 109.993355,167.053802 
z"/>
<path fill="#182537" opacity="1.000000" stroke="none" 
	d="
M145.983353,92.150116 
	C153.308411,93.456985 157.792389,98.368248 158.474243,105.831223 
	C159.135132,113.065094 154.690491,119.128502 145.990067,121.630737 
	C136.923599,121.232208 128.553986,121.022995 120.184845,121.040718 
	C116.797165,121.047897 113.410530,121.550240 110.023422,121.827255 
	C109.701767,121.042198 109.102730,120.257797 109.100876,119.471977 
	C109.079582,110.447311 109.148994,101.422432 109.940491,92.509995 
	C119.393181,92.748352 128.099670,92.957741 136.806076,92.955193 
	C139.865250,92.954300 142.924271,92.433517 145.983353,92.150116 
z"/>
<path fill="#171B22" opacity="1.000000" stroke="none" 
	d="
M145.523499,92.058250 
	C142.924271,92.433517 139.865250,92.954300 136.806076,92.955193 
	C128.099670,92.957741 119.393181,92.748352 110.355225,92.378227 
	C121.703705,92.078178 133.383682,92.022278 145.523499,92.058250 
z"/>
<path fill="#14171E" opacity="1.000000" stroke="none" 
	d="
M110.482658,121.920013 
	C113.410530,121.550240 116.797165,121.047897 120.184845,121.040718 
	C128.553986,121.022995 136.923599,121.232208 145.628571,121.586143 
	C134.290039,121.885643 122.615967,121.949211 110.482658,121.920013 
z"/>
<path fill="#0E1C32" opacity="1.000000" stroke="none" 
	d="
M110.244019,167.178223 
	C110.271591,166.975189 110.549820,166.896591 110.925842,166.968826 
	C110.847313,167.180664 110.670998,167.241669 110.244019,167.178223 
z"/>
<path fill="#0E1C32" opacity="1.000000" stroke="none" 
	d="
M151.253235,167.063995 
	C151.254990,166.892441 151.509918,166.774124 151.873016,166.783691 
	C151.822937,166.980148 151.664673,167.048691 151.253235,167.063995 
z"/>
</svg>