<svg enable-background="new 0 0 256 256" id="Layer_1" version="1.1" viewBox="0 0 256 256" width="100%" x="0px" xmlns="http://www.w3.org/2000/svg" xmlns:xlink="http://www.w3.org/1999/xlink" y="0px" xmlns:bx="https://boxy-svg.com">
  <defs>
    <bx:guide x="113.85813923861922" y="207.4195464112218" angle="0"></bx:guide>
  </defs>
  <path d="M 140 257 C 93.333 257 47.167 257 1 257 C 1 171.667 1 86.333 1 1 C 86.333 1 171.667 1 257 1 C 257 86.333 257 171.667 257 257 C 218.167 257 179.333 257 140 257 M 179.39 42.276 C 167.903 53.416 165.736 67.759 173.657 80.217 C 181.949 93.26 197.521 98.403 211.492 93.358 C 222.686 89.316 234.022 75.601 232.086 62.717 C 228.445 67.477 225.098 71.307 222.365 75.534 C 215.864 85.59 204.439 90.461 194.049 87.238 C 175.689 81.544 171.041 62.728 184.76 46.945 C 193.623 39.657 202.948 38.948 213.107 44.013 C 214.736 42.2 216.206 40.564 217.745 38.85 C 205.312 30.908 191.765 32.182 179.39 42.276 M 122.331 199.841 C 122.415 194.661 122.231 189.15 122.473 183.127 C 124.522 183.205 131.734 183.077 132.829 183.304 C 132.911 188.631 132.924 193.96 133.096 199.283 C 133.252 204.091 136.829 207.874 141.046 207.901 C 145.348 207.929 148.712 204.334 148.894 199.257 C 149.037 195.262 149.027 191.256 148.913 187.26 C 148.829 184.303 149.59 182.686 153.02 182.519 C 155.772 182.386 158.676 181.669 161.166 180.484 C 172.052 175.304 178.777 166.665 179.683 154.599 C 180.543 143.131 175.543 134.159 165.081 128.308 C 175.277 120.178 177.565 109.688 174.12 98.089 C 170.502 85.904 161.944 78.672 149.3 76.66 C 149.171 76.239 148.994 75.928 148.992 75.616 C 148.959 70.283 148.944 64.951 148.932 59.618 C 148.915 52.133 146.077 48.083 140.87 48.121 C 135.673 48.159 133.068 52.011 133.037 59.77 C 133.014 65.375 133.032 70.981 133.032 76.603 C 129.001 76.603 125.602 76.603 121.911 76.603 C 121.911 70.657 121.921 65.012 121.909 59.367 C 121.893 52.464 118.77 48.11 113.923 48.201 C 109.11 48.29 106.194 52.576 106.184 59.598 C 106.176 65.22 106.182 70.842 106.182 76.922 C 104.137 76.922 102.515 76.923 100.892 76.922 C 93.893 76.918 86.889 76.771 79.895 76.955 C 73.814 77.114 71.999 82.15 73.375 87.699 C 74.247 91.214 77.913 93.218 82.118 92.977 C 85.53 92.781 88.962 92.937 92.37 92.937 C 92.37 118.061 92.37 142.504 92.37 167.545 C 88.679 167.545 85.222 167.471 81.77 167.562 C 76.005 167.713 72.394 170.606 72.295 175.014 C 72.193 179.602 75.933 182.568 82.023 182.666 C 89.345 182.784 102.612 183.389 106.168 183.333 C 106.21 187.649 106.141 193.024 106.189 197.34 C 106.253 203.192 109.651 207.546 113.523 207.515 C 118.175 207.478 121.61 206.556 122.331 199.841 Z M 33.98 136.266 C 33.296 122.714 34.364 109.444 38.573 96.373 C 55.829 42.772 119.308 14.361 170.374 41.599 C 174.134 38.349 177.843 35.143 181.616 31.883 C 142.412 6.822 80.597 12.305 43.642 57.978 C 7.563 102.566 11.996 168.901 53.863 208.318 C 94.177 246.274 160.773 247.022 201.367 210.048 C 221.781 191.456 233.729 168.416 236.784 141.102 C 238.783 123.228 237.56 105.504 229.934 88.472 C 226.841 91.066 224.429 93.39 221.711 95.273 C 219.498 96.806 218.752 98.083 219.685 100.946 C 223.9 113.885 224.42 127.358 222.678 140.611 C 215.722 193.533 170.268 229.017 116.719 222.614 C 71.557 217.213 38.434 182.175 33.98 136.266 M 223.66 43.155 C 215.65 50.668 207.64 58.18 198.902 66.375 C 197.613 64.86 195.578 62.453 193.524 60.061 C 190.911 57.018 187.881 55.612 184.543 58.755 C 181.451 61.665 181.069 65.24 183.856 68.568 C 186.738 72.009 189.89 75.235 193.053 78.427 C 198.192 83.614 201.858 83.82 207.196 78.626 C 217.585 68.518 227.74 58.17 237.981 47.911 C 238.567 47.325 239.133 46.693 239.581 46 C 241.737 42.666 241.085 39.627 238.309 37.051 C 235.567 34.505 232.559 34.569 229.788 36.981 C 227.785 38.726 226.027 40.752 223.66 43.155 Z" fill="#182537" opacity="1.000000" stroke="none"></path>
  <path d=" M34.004093,136.735474   C38.434010,182.175049 71.557388,217.213348 116.719398,222.613693   C170.268372,229.016922 215.722061,193.533371 222.678207,140.611435   C224.420288,127.357941 223.900299,113.884979 219.685059,100.945885   C218.752319,98.082779 219.497574,96.806305 221.711212,95.273087   C224.429306,93.390488 226.841156,91.065720 229.934341,88.471733   C237.560410,105.503883 238.783417,123.228317 236.783997,141.102463   C233.728668,168.416260 221.780777,191.455887 201.367264,210.048370   C160.772873,247.021515 94.177094,246.273544 53.862564,208.317749   C11.995976,168.900726 7.563494,102.566353 43.641644,57.977772   C80.597382,12.304594 142.411819,6.822473 181.615540,31.882587   C177.842590,35.143486 174.134003,38.348751 170.373749,41.598682   C119.307587,14.361071 55.829185,42.771564 38.572735,96.372566   C34.364395,109.444283 33.296398,122.713768 34.004093,136.735474  z" fill="#F7F9FB" opacity="1.000000" stroke="none"></path>
  <path d=" M223.909393,42.903786   C226.026749,40.751919 227.784653,38.725552 229.788284,36.981476   C232.559402,34.569302 235.566727,34.505074 238.309128,37.050587   C241.085175,39.627342 241.736938,42.666092 239.580734,45.999893   C239.132629,46.692730 238.566681,47.324711 237.981308,47.911110   C227.739899,58.170029 217.584656,68.517822 207.196152,78.625801   C201.858017,83.819778 198.192123,83.614288 193.052582,78.427124   C189.889694,75.234924 186.737595,72.009048 183.855896,68.567802   C181.068924,65.239670 181.450592,61.665245 184.542755,58.754654   C187.881287,55.612167 190.911240,57.017582 193.524384,60.061157   C195.577713,62.452679 197.612549,64.860069 198.902084,66.375122   C207.639679,58.180141 215.649597,50.667660 223.909393,42.903786  z" fill="#F8F9FA" opacity="1.000000" stroke="none"></path>
  <path d="M 184.538 47.133 C 171.452 62.618 175.689 81.544 194.049 87.238 C 204.439 90.461 215.864 85.59 222.365 75.534 C 225.098 71.307 228.445 67.477 232.086 62.717 C 234.022 75.601 222.686 89.316 211.492 93.358 C 197.521 98.403 181.949 93.26 173.657 80.217 C 165.736 67.759 167.911 52.848 179.916 41.795 C 181.654 43.477 183.318 45.538 184.538 47.133 Z" fill="#3ACFB7" opacity="1.000000" stroke="none"></path>
  <path d="M 184.54 47.084 C 183.003 45.638 181.298 43.788 179.849 41.936 C 191.416 31.926 205.312 30.908 217.745 38.85 C 216.206 40.564 214.736 42.2 213.107 44.013 C 202.948 38.948 193.599 39.72 184.54 47.084 Z" fill="#3DD0B9" opacity="1.000000" stroke="none"></path>
  <path d="M 109.112 167.086 C 108.795 165.086 109.041 145.472 109.041 137.317 C 123.246 137.317 137.036 136.937 150.789 137.475 C 157.814 137.75 163.023 144.068 163.829 151.188 C 164.591 157.922 159.323 165.43 151.208 167.013 C 147.327 167.033 108.801 166.935 109.112 167.086 Z" fill="#1A2638" opacity="1.000000" stroke="none"></path>
  <path d="M 145.947 92.15 C 153.293 93.461 157.79 98.394 158.474 105.889 C 159.137 113.153 154.679 119.243 145.954 121.756 C 137.08 122.173 112.495 121.524 109.097 121.802 C 109.059 109.808 109.009 101.461 109.802 92.511 C 119.282 92.75 142.185 92.146 145.947 92.15 Z" fill="#182537" opacity="1.000000" stroke="none" style=""></path>
</svg>